<svg width="39" height="39" viewBox="0 0 39 39" fill="none" xmlns="http://www.w3.org/2000/svg">
<mask id="path-1-outside-1_270_208" maskUnits="userSpaceOnUse" x="0.249023" y="0.249023" width="39" height="39" fill="black">
<rect fill="white" x="0.249023" y="0.249023" width="39" height="39"/>
<path d="M22.748 12.5049L30.002 5.25293L34.2441 9.49609L26.9902 16.749H37.249V22.748H26.9912L34.2441 30.002L30.002 34.2441L22.748 26.9902V37.249H16.749V26.9912L9.49609 34.2441L5.25293 30.002L12.5059 22.748H2.24902V16.749H12.5068L5.25293 9.49512L9.49609 5.25293L16.749 12.5059V2.24902H22.749L22.748 12.5049Z"/>
</mask>
<path d="M22.748 12.5049L30.002 5.25293L34.2441 9.49609L26.9902 16.749H37.249V22.748H26.9912L34.2441 30.002L30.002 34.2441L22.748 26.9902V37.249H16.749V26.9912L9.49609 34.2441L5.25293 30.002L12.5059 22.748H2.24902V16.749H12.5068L5.25293 9.49512L9.49609 5.25293L16.749 12.5059V2.24902H22.749L22.748 12.5049Z" fill="currentColor"/>
<path d="M22.748 12.5049L21.248 12.5047L21.2477 16.1259L23.8086 13.5657L22.748 12.5049ZM30.002 5.25293L31.0627 4.19239L30.0022 3.13163L28.9414 4.19213L30.002 5.25293ZM34.2441 9.49609L35.3047 10.5568L36.3654 9.49629L35.3049 8.43556L34.2441 9.49609ZM26.9902 16.749L25.9296 15.6883L23.3686 18.249H26.9902V16.749ZM37.249 16.749H38.749V15.249H37.249V16.749ZM37.249 22.748V24.248H38.749V22.748H37.249ZM26.9912 22.748V21.248H23.3702L25.9305 23.8086L26.9912 22.748ZM34.2441 30.002L35.3048 31.0626L36.3654 30.002L35.3049 28.9414L34.2441 30.002ZM30.002 34.2441L28.9413 35.3048L30.002 36.3655L31.0626 35.3048L30.002 34.2441ZM22.748 26.9902L23.8087 25.9296L21.248 23.3689V26.9902H22.748ZM22.748 37.249V38.749H24.248V37.249H22.748ZM16.749 37.249H15.249V38.749H16.749V37.249ZM16.749 26.9912H18.249V23.3699L15.6884 25.9306L16.749 26.9912ZM9.49609 34.2441L8.43556 35.3049L9.49622 36.3653L10.5568 35.3048L9.49609 34.2441ZM5.25293 30.002L4.1922 28.9414L3.13156 30.0021L4.19239 31.0627L5.25293 30.002ZM12.5059 22.748L13.5666 23.8086L16.1268 21.248H12.5059V22.748ZM2.24902 22.748H0.749023V24.248H2.24902V22.748ZM2.24902 16.749V15.249H0.749023V16.749H2.24902ZM12.5068 16.749V18.249H16.1282L13.5675 15.6884L12.5068 16.749ZM5.25293 9.49512L4.19239 8.43433L3.13149 9.495L4.19227 10.5558L5.25293 9.49512ZM9.49609 5.25293L10.5568 4.19227L9.49622 3.13173L8.43556 4.19215L9.49609 5.25293ZM16.749 12.5059L15.6884 13.5665L18.249 16.1272V12.5059H16.749ZM16.749 2.24902V0.749023H15.249V2.24902H16.749ZM22.749 2.24902L24.249 2.24917L24.2492 0.749023H22.749V2.24902ZM22.748 12.5049L23.8086 13.5657L31.0625 6.31373L30.002 5.25293L28.9414 4.19213L21.6875 11.4441L22.748 12.5049ZM30.002 5.25293L28.9412 6.31347L33.1834 10.5566L34.2441 9.49609L35.3049 8.43556L31.0627 4.19239L30.002 5.25293ZM34.2441 9.49609L33.1836 8.43536L25.9296 15.6883L26.9902 16.749L28.0508 17.8098L35.3047 10.5568L34.2441 9.49609ZM26.9902 16.749V18.249H37.249V16.749V15.249H26.9902V16.749ZM37.249 16.749H35.749V22.748H37.249H38.749V16.749H37.249ZM37.249 22.748V21.248H26.9912V22.748V24.248H37.249V22.748ZM26.9912 22.748L25.9305 23.8086L33.1834 31.0625L34.2441 30.002L35.3049 28.9414L28.0519 21.6875L26.9912 22.748ZM34.2441 30.002L33.1835 28.9413L28.9413 33.1835L30.002 34.2441L31.0626 35.3048L35.3048 31.0626L34.2441 30.002ZM30.002 34.2441L31.0626 33.1835L23.8087 25.9296L22.748 26.9902L21.6874 28.0509L28.9413 35.3048L30.002 34.2441ZM22.748 26.9902H21.248V37.249H22.748H24.248V26.9902H22.748ZM22.748 37.249V35.749H16.749V37.249V38.749H22.748V37.249ZM16.749 37.249H18.249V26.9912H16.749H15.249V37.249H16.749ZM16.749 26.9912L15.6884 25.9306L8.43543 33.1835L9.49609 34.2441L10.5568 35.3048L17.8097 28.0519L16.749 26.9912ZM9.49609 34.2441L10.5566 33.1834L6.31347 28.9412L5.25293 30.002L4.19239 31.0627L8.43556 35.3049L9.49609 34.2441ZM5.25293 30.002L6.31366 31.0625L13.5666 23.8086L12.5059 22.748L11.4451 21.6875L4.1922 28.9414L5.25293 30.002ZM12.5059 22.748V21.248H2.24902V22.748V24.248H12.5059V22.748ZM2.24902 22.748H3.74902V16.749H2.24902H0.749023V22.748H2.24902ZM2.24902 16.749V18.249H12.5068V16.749V15.249H2.24902V16.749ZM12.5068 16.749L13.5675 15.6884L6.31359 8.43446L5.25293 9.49512L4.19227 10.5558L11.4462 17.8097L12.5068 16.749ZM5.25293 9.49512L6.31347 10.5559L10.5566 6.31371L9.49609 5.25293L8.43556 4.19215L4.19239 8.43433L5.25293 9.49512ZM9.49609 5.25293L8.43543 6.31359L15.6884 13.5665L16.749 12.5059L17.8097 11.4452L10.5568 4.19227L9.49609 5.25293ZM16.749 12.5059H18.249V2.24902H16.749H15.249V12.5059H16.749ZM16.749 2.24902V3.74902H22.749V2.24902V0.749023H16.749V2.24902ZM22.749 2.24902L21.249 2.24888L21.248 12.5047L22.748 12.5049L24.248 12.505L24.249 2.24917L22.749 2.24902Z" fill="black" mask="url(#path-1-outside-1_270_208)"/>
</svg>
