<svg width="239" height="269" viewBox="0 0 239 269" fill="none" xmlns="http://www.w3.org/2000/svg">
<g filter="url(#filter0_g_270_197)">
<path d="M7.99902 5.33887L231.834 30.6309L234.25 30.9043L234.045 33.3262L215.919 247.466L215.71 249.936L213.238 249.748L171.214 246.559L124.445 263.498L123.333 263.9L123.819 262.822L132.475 243.618L24.3906 235.416L22.248 235.253L22.0869 233.109L5.22559 8.00977L5 5L7.99902 5.33887Z" fill="currentColor"/>
<path d="M7.99902 5.33887L8.05516 4.84203L8.05516 4.84203L7.99902 5.33887ZM231.834 30.6309L231.89 30.134L231.89 30.134L231.834 30.6309ZM234.25 30.9043L234.748 30.9465L234.789 30.4621L234.306 30.4075L234.25 30.9043ZM234.045 33.3262L233.547 33.284V33.284L234.045 33.3262ZM215.919 247.466L215.421 247.424V247.424L215.919 247.466ZM215.71 249.936L215.672 250.434L216.166 250.472L216.208 249.978L215.71 249.936ZM213.238 249.748L213.2 250.247H213.2L213.238 249.748ZM171.214 246.559L171.252 246.06L171.145 246.052L171.044 246.088L171.214 246.559ZM124.445 263.498L124.615 263.968L124.616 263.968L124.445 263.498ZM123.333 263.9L122.877 263.695L122.391 264.773L123.503 264.371L123.333 263.9ZM123.819 262.822L124.275 263.028L124.275 263.028L123.819 262.822ZM132.475 243.618L132.93 243.824L133.223 243.174L132.512 243.12L132.475 243.618ZM24.3906 235.416L24.3527 235.915L24.3528 235.915L24.3906 235.416ZM22.248 235.253L21.7495 235.29L21.7817 235.719L22.2101 235.751L22.248 235.253ZM22.0869 233.109L21.5883 233.147L21.5883 233.147L22.0869 233.109ZM5.22559 8.00977L5.72419 7.97242L5.72419 7.97239L5.22559 8.00977ZM5 5L5.05614 4.50316L4.45628 4.43538L4.5014 5.03737L5 5ZM7.99902 5.33887L7.94288 5.83571L231.778 31.1277L231.834 30.6309L231.89 30.134L8.05516 4.84203L7.99902 5.33887ZM231.834 30.6309L231.778 31.1277L234.194 31.4011L234.25 30.9043L234.306 30.4075L231.89 30.134L231.834 30.6309ZM234.25 30.9043L233.752 30.8621L233.547 33.284L234.045 33.3262L234.543 33.3684L234.748 30.9465L234.25 30.9043ZM234.045 33.3262L233.547 33.284L215.421 247.424L215.919 247.466L216.417 247.508L234.543 33.3683L234.045 33.3262ZM215.919 247.466L215.421 247.424L215.212 249.893L215.71 249.936L216.208 249.978L216.417 247.508L215.919 247.466ZM215.71 249.936L215.748 249.437L213.276 249.249L213.238 249.748L213.2 250.247L215.672 250.434L215.71 249.936ZM213.238 249.748L213.276 249.249L171.252 246.06L171.214 246.559L171.176 247.057L213.2 250.247L213.238 249.748ZM171.214 246.559L171.044 246.088L124.275 263.028L124.445 263.498L124.616 263.968L171.384 247.029L171.214 246.559ZM124.445 263.498L124.275 263.028L123.163 263.43L123.333 263.9L123.503 264.371L124.615 263.968L124.445 263.498ZM123.333 263.9L123.789 264.106L124.275 263.028L123.819 262.822L123.364 262.617L122.877 263.695L123.333 263.9ZM123.819 262.822L124.275 263.028L132.93 243.824L132.475 243.618L132.019 243.413L123.363 262.617L123.819 262.822ZM132.475 243.618L132.512 243.12L24.4285 234.917L24.3906 235.416L24.3528 235.915L132.437 244.117L132.475 243.618ZM24.3906 235.416L24.4286 234.917L22.286 234.754L22.248 235.253L22.2101 235.751L24.3527 235.915L24.3906 235.416ZM22.248 235.253L22.7466 235.215L22.5855 233.072L22.0869 233.109L21.5883 233.147L21.7495 235.29L22.248 235.253ZM22.0869 233.109L22.5855 233.072L5.72419 7.97242L5.22559 8.00977L4.72698 8.04711L21.5883 233.147L22.0869 233.109ZM5.22559 8.00977L5.72419 7.97239L5.4986 4.96263L5 5L4.5014 5.03737L4.72698 8.04714L5.22559 8.00977ZM5 5L4.94386 5.49684L7.94288 5.83571L7.99902 5.33887L8.05516 4.84203L5.05614 4.50316L5 5Z" fill="currentColor"/>
</g>
<defs>
<filter id="filter0_g_270_197" x="0.456299" y="0.435547" width="238.333" height="268.337" filterUnits="userSpaceOnUse" color-interpolation-filters="sRGB">
<feFlood flood-opacity="0" result="BackgroundImageFix"/>
<feBlend mode="normal" in="SourceGraphic" in2="BackgroundImageFix" result="shape"/>
<feTurbulence type="fractalNoise" baseFrequency="0.25 0.25" numOctaves="3" seed="1487" />
<feDisplacementMap in="shape" scale="8" xChannelSelector="R" yChannelSelector="G" result="displacedImage" width="100%" height="100%" />
<feMerge result="effect1_texture_270_197">
<feMergeNode in="displacedImage"/>
</feMerge>
</filter>
</defs>
</svg>
