<svg width="100" height="56" viewBox="0 0 100 56" fill="none" xmlns="http://www.w3.org/2000/svg">
<g filter="url(#filter0_g_1059_755)">
<path d="M86.3696 6.28906L92.5953 1.99984" stroke="#1A44D1" stroke-width="2" stroke-linecap="round"/>
</g>
<g filter="url(#filter1_g_1059_755)">
<path d="M87.8997 11.9765L97.7968 14.6511" stroke="#1A44D1" stroke-width="2" stroke-linecap="round"/>
</g>
<g filter="url(#filter2_g_1059_755)">
<path d="M72.5925 45.6876C60.5039 45.6876 48.4153 45.6876 36.3267 45.6876C26.9612 45.6876 18.4686 45.039 10.2548 40.1077C4.38869 36.5859 1.08565 30.174 2.22239 23.4469C3.80013 14.11 13.5129 10.4655 21.3293 7.60202C25.5842 6.04327 30.4029 5.46631 34.9124 5.41743C41.5412 5.34558 48.2352 4.68073 54.8199 3.89085C63.6249 2.83462 73.2537 3.0057 79.0505 10.6289C81.3353 13.6337 82.527 17.4987 83.6404 21.0517C85.152 25.8754 81.5866 29.8398 78.7302 33.475C75.0938 38.103 70.3531 41.896 65.4941 45.2139C63.1905 46.7869 59.464 52.7102 57 53.9253" stroke="#1B46D6" stroke-width="2" stroke-linecap="round"/>
</g>
<defs>
<filter id="filter0_g_1059_755" x="84.3695" y="-0.000488281" width="10.226" height="8.28955" filterUnits="userSpaceOnUse" color-interpolation-filters="sRGB">
<feFlood flood-opacity="0" result="BackgroundImageFix"/>
<feBlend mode="normal" in="SourceGraphic" in2="BackgroundImageFix" result="shape"/>
<feTurbulence type="fractalNoise" baseFrequency="0.25 0.25" numOctaves="3" seed="4031" />
<feDisplacementMap in="shape" scale="2" xChannelSelector="R" yChannelSelector="G" result="displacedImage" width="100%" height="100%" />
<feMerge result="effect1_texture_1059_755">
<feMergeNode in="displacedImage"/>
</feMerge>
</filter>
<filter id="filter1_g_1059_755" x="85.8994" y="9.97607" width="13.8976" height="6.67529" filterUnits="userSpaceOnUse" color-interpolation-filters="sRGB">
<feFlood flood-opacity="0" result="BackgroundImageFix"/>
<feBlend mode="normal" in="SourceGraphic" in2="BackgroundImageFix" result="shape"/>
<feTurbulence type="fractalNoise" baseFrequency="0.25 0.25" numOctaves="3" seed="4031" />
<feDisplacementMap in="shape" scale="2" xChannelSelector="R" yChannelSelector="G" result="displacedImage" width="100%" height="100%" />
<feMerge result="effect1_texture_1059_755">
<feMergeNode in="displacedImage"/>
</feMerge>
</filter>
<filter id="filter2_g_1059_755" x="-0.000366211" y="1.42529" width="86.0007" height="54.5" filterUnits="userSpaceOnUse" color-interpolation-filters="sRGB">
<feFlood flood-opacity="0" result="BackgroundImageFix"/>
<feBlend mode="normal" in="SourceGraphic" in2="BackgroundImageFix" result="shape"/>
<feTurbulence type="fractalNoise" baseFrequency="0.25 0.25" numOctaves="3" seed="6246" />
<feDisplacementMap in="shape" scale="2" xChannelSelector="R" yChannelSelector="G" result="displacedImage" width="100%" height="100%" />
<feMerge result="effect1_texture_1059_755">
<feMergeNode in="displacedImage"/>
</feMerge>
</filter>
</defs>
</svg>
