<svg width="280" height="280" viewBox="0 0 280 280" fill="none" xmlns="http://www.w3.org/2000/svg">
<g filter="url(#filter0_g_270_269)">
<path d="M208.756 21.3089L217.865 44.169L242.12 48.3269L243.72 72.8832L265.502 84.3327L259.436 108.182L276.614 125.802L263.475 146.609L274.367 168.675L255.441 184.403L258.982 208.755L236.122 217.865L231.964 242.12L207.407 243.72L195.958 265.502L172.109 259.435L154.489 276.614L133.682 263.474L111.616 274.367L95.8876 255.441L71.5353 258.982L62.4254 236.121L38.1709 231.964L36.571 207.407L14.7884 195.958L20.8552 172.109L3.6768 154.489L16.8164 133.682L5.92368 111.616L24.8498 95.8874L21.3091 71.5351L44.1692 62.4252L48.3271 38.1706L72.8834 36.5708L84.3329 14.7882L108.182 20.855L125.802 3.67658L146.609 16.8162L168.675 5.92347L184.403 24.8496L208.756 21.3089Z" fill="white"/>
<path d="M208.756 21.3089L217.865 44.169L242.12 48.3269L243.72 72.8832L265.502 84.3327L259.436 108.182L276.614 125.802L263.475 146.609L274.367 168.675L255.441 184.403L258.982 208.755L236.122 217.865L231.964 242.12L207.407 243.72L195.958 265.502L172.109 259.435L154.489 276.614L133.682 263.474L111.616 274.367L95.8876 255.441L71.5353 258.982L62.4254 236.121L38.1709 231.964L36.571 207.407L14.7884 195.958L20.8552 172.109L3.6768 154.489L16.8164 133.682L5.92368 111.616L24.8498 95.8874L21.3091 71.5351L44.1692 62.4252L48.3271 38.1706L72.8834 36.5708L84.3329 14.7882L108.182 20.855L125.802 3.67658L146.609 16.8162L168.675 5.92347L184.403 24.8496L208.756 21.3089Z" fill="black"/>
<path d="M217.401 44.3541L217.505 44.6145L217.781 44.6621L241.647 48.7525L243.221 72.9158L243.239 73.1956L243.487 73.3264L264.921 84.5914L258.951 108.058L258.882 108.33L259.078 108.53L275.98 125.868L263.052 146.342L262.902 146.578L263.026 146.83L273.745 168.542L255.122 184.019L254.906 184.197L254.946 184.475L258.429 208.437L235.936 217.401L235.676 217.504L235.629 217.781L231.538 241.646L207.375 243.221L207.095 243.239L206.965 243.487L195.698 264.92L172.232 258.951L171.961 258.882L171.76 259.077L154.423 275.98L133.949 263.052L133.712 262.902L133.461 263.026L111.748 273.744L96.2719 255.121L96.0932 254.906L95.816 254.946L71.8546 258.429L62.8902 235.936L62.7859 235.676L62.5096 235.629L38.6431 231.537L37.0702 207.375L37.0516 207.095L36.8038 206.965L15.3706 195.698L21.3398 172.232L21.4086 171.96L21.2132 171.76L4.30999 154.422L17.2394 133.949L17.3888 133.712L17.2643 133.461L6.54635 111.748L25.1698 96.272L25.3849 96.0929L25.3442 95.8157L21.8604 71.8537L44.3539 62.8898L44.6148 62.7856L44.6625 62.5097L48.7534 38.6428L72.9157 37.0698L73.1959 37.0512L73.3263 36.804L84.5917 15.3697L108.058 21.3394L108.33 21.4082L108.531 21.2129L125.869 4.30962L146.342 17.2395L146.578 17.3884L146.83 17.2644L168.542 6.5455L184.018 25.1694L184.198 25.3845L184.476 25.3443L208.438 21.8605L217.401 44.3541Z" stroke="currentColor"/>
</g>
<defs>
<filter id="filter0_g_270_269" x="0.676758" y="0.676758" width="278.937" height="278.937" filterUnits="userSpaceOnUse" color-interpolation-filters="sRGB">
<feFlood flood-opacity="0" result="BackgroundImageFix"/>
<feBlend mode="normal" in="SourceGraphic" in2="BackgroundImageFix" result="shape"/>
<feTurbulence type="fractalNoise" baseFrequency="0.25 0.25" numOctaves="3" seed="2716" />
<feDisplacementMap in="shape" scale="6" xChannelSelector="R" yChannelSelector="G" result="displacedImage" width="100%" height="100%" />
<feMerge result="effect1_texture_270_269">
<feMergeNode in="displacedImage"/>
</feMerge>
</filter>
</defs>
</svg>
