<svg width="44" height="44" viewBox="0 0 44 44" fill="none" xmlns="http://www.w3.org/2000/svg">
<path d="M41 22L35.5164 27.5987L35.435 35.435L27.5987 35.5164L22 41L16.4013 35.5164L8.56497 35.435L8.48364 27.5987L3 22L8.48364 16.4013L8.56497 8.56497L16.4013 8.48364L22 3L27.5987 8.48364L35.435 8.56497L35.5164 16.4013L41 22Z" fill="#1C4AE4"/>
<path d="M20.3439 25.2812L19.9806 14.0898H24.2462L23.8829 25.2812H20.3439ZM22.1134 31.1523C20.8829 31.1523 19.8868 30.2266 19.8868 29.043C19.8868 27.8711 20.8829 26.9453 22.1134 26.9453C23.3321 26.9453 24.3282 27.8711 24.3282 29.043C24.3282 30.2266 23.3321 31.1523 22.1134 31.1523Z" fill="black"/>
</svg>
