<svg width="21" height="21" viewBox="0 0 21 21" fill="none" xmlns="http://www.w3.org/2000/svg">
<path d="M20.7896 10.6052L17.7895 13.6682L17.745 17.9554L13.4578 17.9999L10.3948 21L7.33179 17.9999L3.04456 17.9554L3.00007 13.6682L1.45298e-06 10.6052L3.00007 7.54223L3.04456 3.25501L7.33179 3.21051L10.3948 0.210449L13.4578 3.21051L17.745 3.25501L17.7895 7.54223L20.7896 10.6052Z" fill="black"/>
<path d="M9.48855 12.8171L9.2898 6.69437H11.6235L11.4247 12.8171H9.48855ZM10.4566 16.0291C9.78347 16.0291 9.23851 15.5227 9.23851 14.8751C9.23851 14.234 9.78347 13.7275 10.4566 13.7275C11.1234 13.7275 11.6684 14.234 11.6684 14.8751C11.6684 15.5227 11.1234 16.0291 10.4566 16.0291Z" fill="#F8ECDE"/>
</svg>
