<svg width="58" height="58" viewBox="0 0 58 58" fill="none" xmlns="http://www.w3.org/2000/svg">
<g filter="url(#filter0_g_1094_1461)">
<rect x="1" y="1" width="56" height="56" rx="10" fill="white"/>
<rect x="2" y="2" width="54" height="54" rx="9" stroke="black" stroke-width="2"/>
</g>
<rect x="24" y="45" width="10" height="1.00009" fill="#BCBCBC"/>
<rect x="24" y="49" width="10" height="1.00009" fill="#BCBCBC"/>
<rect x="19.9998" y="46.0005" width="18" height="1.00009" fill="#BCBCBC"/>
<rect x="19.9998" y="48" width="18" height="1.00009" fill="#BCBCBC"/>
<rect x="18" y="47.0005" width="22" height="1.00009" fill="#BCBCBC"/>
<g opacity="0.9">
<rect x="24.625" y="12" width="8.75" height="1.75" fill="black"/>
<rect x="22" y="13.625" width="14" height="2" fill="black"/>
<rect x="20" y="24.625" width="18" height="2" fill="black"/>
<rect x="19" y="33.625" width="20" height="2" fill="black"/>
<rect x="23.75" y="40" width="11.375" height="1.75" fill="black"/>
<rect x="23.75" y="44.375" width="11.375" height="2.625" fill="black"/>
<rect x="36" y="30.375" width="16.625" height="1.75" transform="rotate(90 36 30.375)" fill="black"/>
<rect x="23.75" y="30.375" width="16.625" height="1.75" transform="rotate(90 23.75 30.375)" fill="black"/>
<rect x="27" y="15.625" width="8" height="2" fill="black"/>
<rect x="33" y="16.625" width="2" height="6" fill="black"/>
<rect x="23" y="14.625" width="2" height="8" fill="black"/>
<rect x="24.7344" y="22.5" width="2.84375" height="2.84375" fill="black"/>
<rect x="30.4219" y="22.5" width="2.84375" height="2.84375" fill="black"/>
<rect x="36" y="38.625" width="2" height="2" fill="black"/>
<rect x="20" y="38.625" width="2" height="2" fill="black"/>
<rect x="38" y="26.625" width="2" height="12" fill="black"/>
<rect x="18" y="26.625" width="2" height="12" fill="black"/>
<rect x="28.125" y="40" width="1.75" height="7" fill="black"/>
</g>
<defs>
<filter id="filter0_g_1094_1461" x="0" y="0" width="58" height="58" filterUnits="userSpaceOnUse" color-interpolation-filters="sRGB">
<feFlood flood-opacity="0" result="BackgroundImageFix"/>
<feBlend mode="normal" in="SourceGraphic" in2="BackgroundImageFix" result="shape"/>
<feTurbulence type="fractalNoise" baseFrequency="0.25 0.25" numOctaves="3" seed="1304" />
<feDisplacementMap in="shape" scale="2" xChannelSelector="R" yChannelSelector="G" result="displacedImage" width="100%" height="100%" />
<feMerge result="effect1_texture_1094_1461">
<feMergeNode in="displacedImage"/>
</feMerge>
</filter>
</defs>
</svg>
