<svg width="58" height="58" viewBox="0 0 58 58" fill="none" xmlns="http://www.w3.org/2000/svg">
<g filter="url(#filter0_g_1094_1511)">
<rect x="1" y="1" width="56" height="56" rx="10" fill="white"/>
<rect x="2" y="2" width="54" height="54" rx="9" stroke="black" stroke-width="2"/>
</g>
<rect x="20.8184" y="43.8013" width="16.3636" height="1.20005" fill="#BCBCBC"/>
<rect x="14.2725" y="40.2012" width="29.4545" height="1.20005" fill="#BCBCBC"/>
<rect x="14.2725" y="42.6011" width="29.4545" height="1.20005" fill="#BCBCBC"/>
<rect x="11" y="41.4014" width="36" height="1.20005" fill="#BCBCBC"/>
<g opacity="0.9">
<rect x="24" y="16.875" width="10" height="2.5" fill="black"/>
<rect x="20.6667" y="19.375" width="16.6667" height="2.5" fill="black"/>
<rect x="18.1667" y="31.875" width="21.6667" height="2.5" fill="black"/>
<rect x="15.6667" y="34.375" width="2.5" height="5" fill="black"/>
<rect x="39.8333" y="34.375" width="2.5" height="5" fill="black"/>
<rect x="14" y="39.375" width="30" height="2.5" fill="black"/>
<rect x="28.0476" y="20.8037" width="8.57143" height="2.85714" fill="black"/>
<rect x="33.762" y="22.7085" width="2.85714" height="6.66667" fill="black"/>
<rect x="21.5" y="21.875" width="2.5" height="7.5" fill="black"/>
<rect x="24" y="29.375" width="2.5" height="2.5" fill="black"/>
<rect x="31.5" y="29.375" width="2.5" height="2.5" fill="black"/>
</g>
<defs>
<filter id="filter0_g_1094_1511" x="0" y="0" width="58" height="58" filterUnits="userSpaceOnUse" color-interpolation-filters="sRGB">
<feFlood flood-opacity="0" result="BackgroundImageFix"/>
<feBlend mode="normal" in="SourceGraphic" in2="BackgroundImageFix" result="shape"/>
<feTurbulence type="fractalNoise" baseFrequency="0.25 0.25" numOctaves="3" seed="1304" />
<feDisplacementMap in="shape" scale="2" xChannelSelector="R" yChannelSelector="G" result="displacedImage" width="100%" height="100%" />
<feMerge result="effect1_texture_1094_1511">
<feMergeNode in="displacedImage"/>
</feMerge>
</filter>
</defs>
</svg>
